<?xml version="1.0" encoding="utf-8"?>
<!-- Generator: Adobe Illustrator 16.0.0, SVG Export Plug-In . SVG Version: 6.00 Build 0)  -->
<!DOCTYPE svg PUBLIC "-//W3C//DTD SVG 1.0//EN" "http://www.w3.org/TR/2001/REC-SVG-20010904/DTD/svg10.dtd">
<svg version="1.0" id="Layer_1" xmlns="http://www.w3.org/2000/svg" xmlns:xlink="http://www.w3.org/1999/xlink" x="0px" y="0px"
	 width="800px" height="800px" viewBox="0 0 800 800" enable-background="new 0 0 800 800" xml:space="preserve">
<g>
	<g>
		<path fill="#2496ED" d="M377.721,359.72c-3.94-0.13-7.237,2.958-7.368,6.897c-0.006,0.157-0.006,0.313,0,0.47v35.428
			c-17.094-13.729-42.079-11-55.807,6.094c-5.663,7.052-8.748,15.826-8.746,24.869c-0.374,21.914,17.087,39.981,39.001,40.356
			c21.914,0.374,39.981-17.086,40.357-39c0.007-0.453,0.007-0.904,0-1.355v-66.357c0.059-1.988-0.728-3.909-2.163-5.286
			c-1.406-1.375-3.309-2.126-5.274-2.082 M368.397,443.032c-2.534,5.961-7.264,10.72-13.209,13.291
			c-6.228,2.636-13.26,2.636-19.489,0c-5.933-2.548-10.645-7.3-13.14-13.256c-2.607-6.159-2.607-13.11,0-19.27
			c2.5-5.936,7.213-10.664,13.14-13.186c6.229-2.637,13.261-2.637,19.489,0c5.945,2.57,10.675,7.328,13.209,13.29
			c2.606,6.134,2.606,13.064,0,19.2"/>
		<path fill="#2496ED" d="M460.571,405.384c-15.505-15.491-40.632-15.479-56.122,0.025c-7.433,7.438-11.607,17.521-11.611,28.034
			c-0.374,21.914,17.087,39.982,39,40.356c21.915,0.375,39.982-17.086,40.357-39c0.008-0.452,0.008-0.904,0-1.355
			c0.003-5.219-0.994-10.39-2.938-15.233C467.255,413.394,464.301,409.03,460.571,405.384 M455.447,442.998
			c-1.268,2.941-3.071,5.619-5.321,7.9c-2.269,2.278-4.949,4.108-7.9,5.389c-6.225,2.639-13.253,2.639-19.478,0
			c-5.939-2.541-10.656-7.295-13.15-13.255c-2.607-6.159-2.607-13.11,0-19.269c2.508-5.928,7.225-10.645,13.15-13.151
			c6.225-2.639,13.253-2.639,19.478,0c2.951,1.281,5.632,3.11,7.9,5.39c2.25,2.279,4.054,4.958,5.321,7.9
			c2.592,6.137,2.592,13.063,0,19.2"/>
		<path fill="#2496ED" d="M624.629,401.127c0.005-0.976-0.196-1.94-0.59-2.834c-0.4-0.856-0.944-1.639-1.607-2.313
			c-0.655-0.684-1.442-1.227-2.313-1.597c-0.92-0.38-1.907-0.572-2.903-0.567c-1.407-0.009-2.785,0.392-3.968,1.157l-42.367,27.563
			v-55.346c0.037-1.981-0.745-3.89-2.162-5.274c-1.363-1.432-3.264-2.229-5.24-2.197c-4.081-0.026-7.411,3.263-7.437,7.345
			c0,0.031,0,0.062,0,0.092v98.488c-0.024,1.969,0.757,3.861,2.162,5.239c1.374,1.438,3.286,2.234,5.274,2.198
			c1.971,0.032,3.863-0.767,5.216-2.198c1.406-1.378,2.188-3.271,2.163-5.239v-25.539l8.641-5.666l32.745,36.769
			c1.326,1.275,3.11,1.964,4.95,1.908c0.996,0.012,1.983-0.181,2.903-0.566c0.873-0.361,1.66-0.901,2.313-1.585
			c0.673-0.692,1.218-1.499,1.606-2.383c0.394-0.893,0.595-1.857,0.591-2.833c0.004-1.922-0.729-3.773-2.047-5.171l-30.443-34.295
			l29.68-19.269C623.713,405.69,624.789,403.452,624.629,401.127"/>
		<path fill="#2496ED" d="M501.701,415.84c2.287-2.262,4.983-4.066,7.946-5.32c3.067-1.306,6.37-1.966,9.704-1.943
			c2.951-0.026,5.881,0.499,8.64,1.551c2.764,1.111,5.325,2.674,7.576,4.625c1.368,1.091,3.073,1.672,4.823,1.644
			c1.993,0.084,3.932-0.672,5.343-2.082c1.391-1.417,2.146-3.337,2.094-5.321c0.024-2.153-0.913-4.205-2.556-5.598
			c-7.101-6.354-16.336-9.795-25.863-9.635c-21.917,0-39.684,17.768-39.684,39.685c-0.055,21.885,17.642,39.67,39.527,39.727
			c9.553,0.022,18.793-3.405,26.02-9.655c1.49-1.418,2.327-3.39,2.313-5.446c0.131-3.939-2.957-7.238-6.897-7.368
			c-0.155-0.006-0.313-0.006-0.47,0c-1.686,0.007-3.327,0.55-4.685,1.55c-2.216,1.95-4.756,3.498-7.507,4.568
			c-2.762,1.038-5.69,1.556-8.64,1.526c-3.334,0.024-6.637-0.638-9.704-1.942c-2.96-1.259-5.656-3.063-7.946-5.32
			c-9.723-9.665-9.771-25.381-0.105-35.103c0.035-0.036,0.07-0.071,0.105-0.105"/>
		<path fill="#2496ED" d="M771.812,398.722c-1.433-1.345-3.138-2.37-4.997-3.008c-2.126-0.763-4.335-1.276-6.581-1.526
			c-2.222-0.273-4.458-0.412-6.696-0.417c-4.543-0.014-9.053,0.769-13.325,2.313c-4.186,1.527-8.094,3.73-11.565,6.524v-1.48
			c-0.163-4.092-3.611-7.277-7.701-7.116c-3.865,0.153-6.963,3.25-7.116,7.116v64.621c0.161,4.092,3.609,7.277,7.701,7.116
			c3.865-0.153,6.963-3.251,7.116-7.116v-32.305c-0.022-3.337,0.639-6.645,1.942-9.716c1.247-2.946,3.05-5.624,5.309-7.889
			c2.273-2.257,4.954-4.063,7.9-5.32c3.072-1.306,6.378-1.966,9.716-1.943c3.318-0.033,6.612,0.568,9.704,1.77
			c0.977,0.471,2.04,0.734,3.123,0.775c0.996,0.01,1.983-0.185,2.903-0.566c0.872-0.369,1.659-0.913,2.313-1.597
			c0.662-0.675,1.202-1.456,1.598-2.313c0.4-0.915,0.606-1.904,0.601-2.903c0.072-1.862-0.65-3.666-1.988-4.963"/>
		<path fill="#2496ED" d="M702.957,418.27c-6.303-14.732-20.747-24.32-36.77-24.405c-21.911-0.007-39.678,17.75-39.685,39.661
			c0,0.003,0,0.007,0,0.011c-0.005,21.925,17.765,39.7,39.688,39.704c9.518,0.002,18.72-3.416,25.928-9.632
			c0.105-0.104,0.267-0.242,0.29-0.276c0.646-0.523,1.212-1.14,1.678-1.828c2.381-3.431,1.532-8.142-1.896-10.525
			c-2.875-1.867-6.654-1.527-9.149,0.821c-0.243,0.221-0.938,0.868-1.053,0.961l-0.104,0.092c-2.111,1.797-4.523,3.205-7.124,4.164
			c-2.753,0.97-5.653,1.448-8.571,1.411c-2.688,0.014-5.362-0.417-7.912-1.273c-2.481-0.829-4.822-2.033-6.939-3.573
			c-2.11-1.543-3.964-3.409-5.494-5.529c-1.563-2.164-2.759-4.57-3.539-7.124h56.109c1.969,0.044,3.871-0.711,5.273-2.093
			c1.443-1.368,2.231-3.288,2.163-5.275c0.045-5.229-0.941-10.419-2.902-15.267 M642.291,426.191
			c0.741-2.555,1.915-4.965,3.47-7.124c1.539-2.123,3.404-3.99,5.528-5.529c2.146-1.537,4.514-2.742,7.021-3.574
			c2.537-0.845,5.192-1.274,7.865-1.272c2.658-0.002,5.299,0.428,7.819,1.272c5.003,1.662,9.361,4.846,12.469,9.104
			c1.587,2.156,2.799,4.565,3.585,7.124H642.291z"/>
		<path fill="#2496ED" d="M746.504,462.395c-2.836,0.045-5.099,2.38-5.054,5.216s2.38,5.099,5.216,5.055
			c2.818-0.045,5.073-2.352,5.055-5.169C751.688,464.646,749.354,462.363,746.504,462.395L746.504,462.395 M746.504,471.567
			c-2.246,0.102-4.149-1.637-4.252-3.883c-0.103-2.247,1.636-4.15,3.882-4.252s4.15,1.636,4.252,3.882
			c0.004,0.071,0.005,0.144,0.005,0.215c0.076,2.151-1.606,3.958-3.757,4.035C746.591,471.566,746.548,471.567,746.504,471.567"/>
		<path fill="#2496ED" d="M747.685,467.657v-0.07c0.567-0.108,0.995-0.579,1.053-1.156c0.021-0.441-0.163-0.868-0.498-1.156
			c-0.543-0.287-1.156-0.416-1.77-0.37c-0.655-0.009-1.31,0.045-1.955,0.163v5.089h1.157v-2.048h0.555c0.66,0,0.96,0.243,1.063,0.81
			c0.07,0.431,0.202,0.848,0.395,1.238h1.283c-0.199-0.399-0.328-0.83-0.382-1.272c-0.052-0.554-0.409-1.032-0.926-1.237
			 M746.261,467.275h-0.566v-1.469c0.22-0.026,0.44-0.026,0.659,0c0.74,0,1.088,0.313,1.088,0.774c0,0.464-0.532,0.753-1.157,0.753"
			/>
		<path fill="#2496ED" d="M292.21,376.387c-0.729-0.579-7.529-5.714-21.872-5.714c-3.787,0.017-7.566,0.342-11.301,0.972
			c-2.776-19.027-18.507-28.303-19.212-28.719l-3.852-2.221l-2.533,3.655c-3.172,4.91-5.487,10.323-6.847,16.008
			c-2.568,10.861-1.007,21.063,4.511,29.783c-6.662,3.713-17.35,4.627-19.513,4.708H34.648c-4.621,0.006-8.371,3.741-8.396,8.362
			c-0.207,15.501,2.42,30.91,7.749,45.468c6.096,15.985,15.164,27.76,26.962,34.965c13.22,8.097,34.699,12.724,59.046,12.724
			c10.999,0.034,21.978-0.961,32.791-2.973c15.032-2.76,29.497-8.015,42.796-15.546c10.958-6.346,20.82-14.419,29.205-23.907
			c14.019-15.87,22.37-33.543,28.581-49.251c0.833,0,1.665,0,2.475,0c15.349,0,24.787-6.141,29.992-11.288
			c3.459-3.283,6.159-7.282,7.911-11.717l1.099-3.215L292.21,376.387z"/>
		<path fill="#2496ED" d="M51.05,389.677h23.711c1.145,0,2.07-0.927,2.07-2.07l0,0v-21.121c0.007-1.144-0.915-2.075-2.059-2.082
			c-0.004,0-0.008,0-0.012,0H51.05c-1.144,0-2.07,0.927-2.07,2.07c0,0.003,0,0.008,0,0.012v21.12
			C48.979,388.75,49.906,389.677,51.05,389.677L51.05,389.677"/>
		<path fill="#2496ED" d="M83.726,389.677h23.711c1.144,0,2.07-0.927,2.07-2.07l0,0v-21.121c0.006-1.144-0.915-2.075-2.059-2.082
			c-0.005,0-0.009,0-0.013,0H83.725c-1.149,0-2.082,0.932-2.082,2.082v21.12C81.649,388.751,82.58,389.677,83.726,389.677"/>
		<path fill="#2496ED" d="M116.897,389.677h23.711c1.144,0,2.07-0.927,2.07-2.07l0,0v-21.121c0.007-1.144-0.915-2.075-2.059-2.082
			c-0.004,0-0.008,0-0.012,0h-23.711c-1.144,0-2.07,0.927-2.07,2.07c0,0.003,0,0.008,0,0.012v21.12
			C114.827,388.75,115.754,389.677,116.897,389.677L116.897,389.677"/>
		<path fill="#2496ED" d="M149.677,389.677h23.711c1.146,0,2.075-0.925,2.082-2.07v-21.121c0-1.15-0.932-2.082-2.082-2.082l0,0
			h-23.711c-1.144,0-2.07,0.927-2.07,2.07c0,0.003,0,0.008,0,0.012v21.12C147.606,388.75,148.533,389.677,149.677,389.677
			L149.677,389.677"/>
		<path fill="#2496ED" d="M83.726,359.292h23.711c1.145-0.007,2.07-0.937,2.07-2.082v-21.121c0-1.144-0.928-2.07-2.07-2.07l0,0
			H83.726c-1.146,0-2.076,0.925-2.082,2.07v21.121C81.649,358.357,82.578,359.285,83.726,359.292"/>
		<path fill="#2496ED" d="M116.897,359.292h23.711c1.146-0.007,2.07-0.937,2.07-2.082v-21.121c0-1.144-0.927-2.07-2.07-2.07l0,0
			h-23.711c-1.144,0-2.07,0.927-2.07,2.07l0,0v21.121C114.827,358.355,115.753,359.285,116.897,359.292"/>
		<path fill="#2496ED" d="M149.677,359.292h23.711c1.147-0.007,2.075-0.935,2.082-2.082v-21.121c-0.007-1.146-0.937-2.07-2.082-2.07
			h-23.711c-1.144,0-2.07,0.927-2.07,2.07l0,0v21.121C147.606,358.355,148.532,359.285,149.677,359.292"/>
		<path fill="#2496ED" d="M149.677,328.895h23.711c1.146,0,2.075-0.925,2.082-2.07v-21.132c-0.007-1.146-0.937-2.07-2.082-2.07
			h-23.711c-1.144,0-2.07,0.926-2.07,2.07l0,0v21.132C147.606,327.968,148.533,328.895,149.677,328.895"/>
		<path fill="#2496ED" d="M182.745,389.677h23.712c1.145,0,2.075-0.925,2.081-2.07v-21.121c0-1.15-0.932-2.082-2.081-2.082l0,0
			h-23.712c-1.143,0-2.07,0.927-2.07,2.07c0,0.003,0,0.008,0,0.012v21.12C180.675,388.75,181.603,389.677,182.745,389.677"/>
	</g>
</g>
</svg>
